<svg width="100" height="100" viewBox="0 0 776 776" fill="none" xmlns="http://www.w3.org/2000/svg">
<g clip-path="url(#clip0_1_128)">
<path opacity="0.1" d="M775.5 0.5H0.5V775.5H775.5V0.5Z" fill="white"/>
<path d="M676.409 560.732C667.589 578.929 652.647 595.22 633.148 609.17C536.754 678.346 329.178 691.8 204.651 609.17C184.098 595.592 165.839 579.363 150.726 560.36C110.364 509.706 86.4941 432.191 92.1671 359.015C94.5076 328.961 98.0261 290.955 125.616 257.94C181.277 191.414 283.964 206.48 289.141 207.332C361.03 218.988 362.27 261.877 466.244 327.783C581.89 401.16 647.718 390.79 676.114 456.324C689.119 486.316 692.327 527.779 676.409 560.732Z" fill="#DFEAF7"/>
<path d="M305.928 584.23L330.046 475.978C336.091 448.838 354.272 425.959 379.367 413.963L450.543 379.909L523.563 410.289C552.92 422.503 574.372 448.403 580.898 479.527L602.846 584.23H305.928Z" fill="#3D71F2"/>
<path d="M405.438 549.603C405.438 549.603 424.472 524.648 433.632 526.244C442.793 527.841 459.703 557.694 459.703 557.694H535.204L537.327 538.582C537.327 538.582 585.625 547.34 602.877 584.23H413.932L405.438 549.603Z" fill="#FFB0B3"/>
<path d="M537.327 540.892C536.149 540.892 535.142 540.008 535.018 538.815L528.461 474.366C528.337 473.095 529.252 471.948 530.523 471.824C531.809 471.715 532.941 472.615 533.065 473.886L539.621 538.334C539.745 539.605 538.831 540.753 537.56 540.877C537.482 540.892 537.405 540.892 537.327 540.892Z" fill="#002D53"/>
<path d="M416.722 369.013V419.17C416.722 419.17 413.141 450.217 433.043 447.427C452.945 444.637 474.056 389.674 474.056 389.674L470.77 340.896L416.722 369.013Z" fill="#FFB0B3"/>
<path d="M473.328 378.638L416.753 414.908V368.997L470.739 340.865L473.328 378.638Z" fill="#FF7A72"/>
<path d="M473.783 333.815C488.623 295.479 478.927 255.991 452.127 245.617C425.326 235.242 391.57 257.91 376.731 296.247C361.891 334.583 371.587 374.071 398.387 384.445C425.188 394.82 458.944 372.152 473.783 333.815Z" fill="#FFB3AE"/>
<path d="M480.38 305.896C480.38 305.896 452.682 290.737 437.554 255.444C437.554 255.444 366.703 310.903 349.979 276.943C333.254 242.982 374.655 216.182 379.429 239.262C379.429 239.262 417.59 177.432 480.38 218.569C543.171 259.707 480.38 305.896 480.38 305.896Z" fill="#002D53"/>
<path d="M490.657 322.559C486.627 333.796 478.024 341.004 471.452 338.648C464.88 336.292 462.819 325.271 466.864 314.018C470.894 302.781 479.497 295.573 486.069 297.929C492.625 300.285 494.687 311.306 490.657 322.559Z" fill="#FFB3AE"/>
<path d="M244.78 492.408H177.107V584.245H244.78V492.408Z" fill="#6190E5"/>
<path d="M151.424 538.629C151.424 546.627 157.949 553.106 165.947 553.106C170.458 553.106 174.472 551.044 177.107 547.836V567.304C173.666 568.683 169.869 569.396 165.947 569.396C148.928 569.396 135.133 555.633 135.133 538.614C135.133 521.595 148.928 507.799 165.947 507.799C169.884 507.799 173.682 508.513 177.107 509.892V529.36C174.472 526.136 170.458 524.09 165.947 524.09C157.934 524.121 151.424 530.6 151.424 538.629Z" fill="#6190E5"/>
<path d="M196.079 423.758C204.402 411.048 216.508 400.772 222.615 386.853C231.016 367.726 226.598 345.204 233 325.318C242.3 296.472 271.688 279.484 288.924 254.545C307.679 227.404 310.608 190.096 296.302 160.367C289.776 146.789 279.515 134.513 265.798 128.266C249.554 120.857 229.745 122.95 214.446 132.172C199.148 141.395 188.344 157.174 183.524 174.363C171.666 216.771 194.606 262.481 185.492 305.555C180.083 331.177 163.746 353.45 158.243 379.041C153.454 401.299 157.964 425.122 169.465 444.668C172.829 450.387 182.222 468.476 187.228 456.029C189.135 451.318 187.957 445.52 188.98 440.545C190.235 434.608 192.746 428.842 196.079 423.758Z" fill="#F1F3F6"/>
<path d="M668.783 584.23H139.551V609.169H668.783V584.23Z" fill="#D18C7E"/>
<path d="M633.148 609.169C536.754 678.346 329.178 691.8 204.651 609.169H633.148Z" fill="#BC7F72"/>
<path d="M424.223 572.233C425.835 578.821 421.604 584.215 414.815 584.215H257.986C251.197 584.215 244.315 578.821 242.703 572.233L214.09 455.565C212.478 448.977 216.709 443.583 223.498 443.583H380.327C387.116 443.583 393.998 448.977 395.61 455.565L424.223 572.233Z" fill="white"/>
<path d="M334.572 515.549C336.323 525.082 329.999 532.816 320.467 532.816C310.934 532.816 301.774 525.082 300.038 515.549C298.286 506.017 304.61 498.282 314.143 498.282C323.675 498.282 332.836 506.017 334.572 515.549Z" fill="#DFEAF7"/>
</g>
<defs>
<clipPath id="clip0_1_128">
<rect width="775" height="775" fill="white" transform="translate(0.5 0.5)"/>
</clipPath>
</defs>
</svg>